<svg
    width="280"
    height="44"
    viewBox="0 0 280 44"
    fill="none"
    xmlns="http://www.w3.org/2000/svg"
>
    <path d="M236.485 0H235.529V43.3481H236.485V0Z" fill="#1F232B" />
    <path
        d="M253.281 26.6095H249.85V16.5939H255.761V17.588H251.04V20.8243H253.268C255.285 20.8243 256.573 21.6641 256.573 23.6681V23.7238C256.573 25.6144 255.285 26.6095 253.281 26.6095ZM253.253 25.6564C254.71 25.6564 255.382 24.9425 255.382 23.7238V23.6681C255.382 22.4347 254.696 21.7765 253.141 21.7765H251.04V25.6564H253.253Z"
        fill="#1F232B"
    />
    <path
        d="M257.678 24.5783C257.678 22.883 259.471 22.3088 261.348 22.3088H262.398V21.7766C262.398 20.6145 261.95 20.1243 260.83 20.1243C259.821 20.1243 259.261 20.5442 259.148 21.4407H257.986C258.14 19.7737 259.471 19.1575 260.886 19.1575C262.286 19.1575 263.561 19.7317 263.561 21.7766V26.6096H262.398V25.6848C261.852 26.3713 261.194 26.7356 260.115 26.7356C258.756 26.7355 257.678 26.0773 257.678 24.5783ZM262.398 24.046V23.1349H261.39C259.919 23.1349 258.84 23.4992 258.84 24.5783C258.84 25.3342 259.205 25.8107 260.227 25.8107C261.46 25.8107 262.398 25.1808 262.398 24.046Z"
        fill="#1F232B"
    />
    <path
        d="M270.285 23.3458H266.685V26.6095H265.522V19.2833H266.685V22.3653H270.285V19.2833H271.448V26.6095H270.285V23.3458Z"
        fill="#1F232B"
    />
    <path
        d="M274.617 22.8693V26.6095H273.455V19.2833H274.617V22.7013L277.657 19.2833H279.016L275.878 22.7296L279.282 26.6095H277.867L274.617 22.8693Z"
        fill="#1F232B"
    />
    <path
        d="M21.9984 0C9.84923 0 0 9.84923 0 21.9966C0 34.1445 9.84923 43.9987 21.9984 43.9987C34.1458 43.9987 44 34.1445 44 21.9966C44 9.84923 34.1458 0 21.9984 0ZM18.8774 31.3557L17.2558 36.1641C11.1612 34.1087 7.06706 28.3765 7.06706 21.9C7.06706 15.4159 11.1692 9.68176 17.2741 7.63188L18.8898 12.4432C14.8535 13.7983 12.1421 17.5985 12.1421 21.9C12.1421 26.1968 14.8491 29.9967 18.8774 31.3557ZM26.4444 36.2612L24.9248 31.4191C29.0716 30.1177 31.8579 26.2921 31.8579 21.9C31.8579 17.5629 29.1161 13.7526 25.0348 12.419L26.6119 7.59473C32.7852 9.61234 36.9329 15.3614 36.9329 21.9C36.9329 28.5213 32.7178 34.2927 26.4444 36.2612Z"
        fill="#02BAE8"
    />
    <path
        d="M220.306 25.6477L222.711 28.5282C220.253 31.1179 217.135 31.8314 214.651 31.8314C212.299 31.8314 210.528 31.4615 209.075 30.7215C205.877 29.136 204.265 25.912 204.265 22.0009C204.265 16.055 208.282 11.7211 214.201 11.7211C220.755 11.7211 223.953 16.6364 223.53 23.0315L208.52 23.0579C208.599 24.6699 209.524 26.2027 210.819 26.969C211.902 27.6297 213.171 27.9732 214.915 27.9732C216.738 27.9732 218.641 27.339 220.306 25.6477ZM208.573 19.5961H219.17C218.905 17.2706 217.003 15.3151 213.937 15.3151C210.819 15.3151 208.943 17.482 208.573 19.5961ZM107.836 31.3293H113.254L104.744 21.4724L113.121 12.1968H107.783L101.388 19.6225H99.512V12.1968H95.3631V31.3293H99.512V23.7186H101.415L107.836 31.3293ZM125.462 15.6322C122.001 15.6322 119.702 18.3277 119.702 21.7631C119.702 25.1985 122.001 27.8939 125.462 27.8939C129.004 27.8939 131.197 25.2513 131.197 21.7631C131.197 18.3541 129.056 15.6322 125.462 15.6322ZM126.176 11.7211C131.567 11.7211 135.531 15.9493 135.531 21.7631C135.531 27.4975 131.593 31.8314 126.176 31.8314C123.533 31.8314 121.472 30.9329 119.992 29.3209V39.2836H115.817V12.1968H119.887V14.4959C121.472 12.5932 123.533 11.7211 126.176 11.7211ZM180.64 12.1968H163.516V16.0286H169.991V31.3293H174.166V16.0286H180.64V12.1968ZM92.4827 12.1968H75.3585V16.0286H81.8329V31.3293H86.0083V16.0286H92.4827V12.1968ZM70.2847 21.7631C70.2847 18.1955 67.7478 15.5529 64.3124 15.5529C60.9034 15.5529 58.3401 18.1163 58.3401 21.7631C58.3401 25.357 60.8241 27.9996 64.3124 27.9996C67.7214 27.9996 70.2847 25.3834 70.2847 21.7631ZM54.0591 21.7631C54.0591 16.0286 58.4986 11.7211 64.3124 11.7211C70.1262 11.7211 74.5657 16.0286 74.5657 21.7631C74.5657 27.4975 70.1262 31.8314 64.3124 31.8314C58.4986 31.8314 54.0591 27.4975 54.0591 21.7631ZM200.883 12.1968V31.3293H196.787V18.9883L186.771 31.3293H183.494V12.1968H187.59V24.5114L197.632 12.1968H200.883ZM160.662 31.3293H156.513V12.1968H160.662V31.3293ZM150.039 24.8021C150.039 23.0844 148.85 21.8952 147.211 21.8952H143.009V27.7882H147.211C148.85 27.7882 150.039 26.5198 150.039 24.8021ZM154.161 24.8021C154.161 28.6339 151.387 31.3293 147.343 31.3293H138.913V12.1968H143.036V18.3805H147.713C151.677 18.3805 154.161 20.9439 154.161 24.8021Z"
        fill="#1F232B"
    />
</svg>
