<svg width="62" height="38" viewBox="0 0 62 38" fill="none" xmlns="http://www.w3.org/2000/svg">
    <path d="M0.64 37H11.488C16.816 37 19.408 34.024 19.408 29.176V23.944C19.408 19.624 17.392 18.136 15.568 17.464C17.2 16.84 18.88 15.4 18.88 11.416V8.248C18.88 3.496 17.008 1.288 11.488 1.288H0.64V37ZM9.76 6.088C11.92 6.088 12.688 6.952 12.688 9.304V12.136C12.688 14.488 11.92 15.544 9.808 15.544H6.928V6.088H9.76ZM9.808 20.68C12.064 20.68 12.928 21.688 12.928 24.184V28.504C12.928 31.048 12.112 31.96 9.904 31.96H6.928V20.68H9.808ZM40.2838 6.952V1.288H22.3318V6.952H28.1398V37H34.5238V6.952H40.2838ZM61.841 28.696V27.688C61.841 23.464 60.449 21.304 57.233 18.376L52.625 14.152C50.657 12.376 49.985 11.32 49.985 9.256V8.92C49.985 6.904 50.849 6.04 52.721 6.04C54.449 6.04 55.313 6.904 55.313 9.064V12.52H61.457V7.816C61.457 3.16 58.433 0.903998 53.201 0.903998H52.193C46.529 0.903998 43.505 3.448 43.505 8.824V9.832C43.505 13.768 45.041 16.12 47.873 18.664L52.529 22.84C54.449 24.568 55.217 25.768 55.217 28.12V28.504C55.217 30.76 54.209 31.96 52.385 31.96C50.561 31.96 49.505 31 49.505 29.032V24.136H43.265V30.184C43.265 34.744 46.289 37.384 51.857 37.384H52.913C59.297 37.384 61.841 33.592 61.841 28.696Z" fill="black"/>
</svg>
