<svg width="24" height="24" viewBox="0 0 24 24" fill="none" xmlns="http://www.w3.org/2000/svg">
    <path d="M18.5455 7.09094L17.4545 9.27276L16.0004 10.2731" stroke="#535E6E" stroke-width="1.71429" stroke-linecap="square" stroke-linejoin="round"/>
    <path d="M4.36365 12.5454H7.75637" stroke="#535E6E" stroke-width="1.71429" stroke-linecap="square" stroke-linejoin="round"/>
    <path d="M16.2437 12.5454H19.6364" stroke="#535E6E" stroke-width="1.71429" stroke-linecap="square" stroke-linejoin="round"/>
    <path d="M5.45453 7.09094L6.54544 9.27276L7.99962 10.2731" stroke="#535E6E" stroke-width="1.71429" stroke-linecap="square" stroke-linejoin="round"/>
    <path d="M12.4844 18H11.5145C9.70691 18 8.24182 16.5349 8.24182 14.7273V11.4545C8.24182 10.2491 9.21818 9.27271 10.4236 9.27271H13.5753C14.7807 9.27271 15.7571 10.2491 15.7571 11.4545V14.7273C15.7571 16.5349 14.292 18 12.4844 18Z" stroke="#535E6E" stroke-width="1.71429" stroke-linecap="square" stroke-linejoin="round"/>
    <path d="M5.45453 18.0001L6.54544 15.8182L7.99962 14.8179" stroke="#535E6E" stroke-width="1.71429" stroke-linecap="square" stroke-linejoin="round"/>
    <path d="M18.5455 18.0001L17.4545 15.8182L16.0004 14.8179" stroke="#535E6E" stroke-width="1.71429" stroke-linecap="square" stroke-linejoin="round"/>
    <path d="M14.1818 9.27273H9.81818V7.09091C9.81818 6.48873 10.3069 6 10.9091 6H13.0909C13.6931 6 14.1818 6.48873 14.1818 7.09091V9.27273Z" stroke="#535E6E" stroke-width="1.71429" stroke-linecap="square" stroke-linejoin="round"/>
</svg>
