<svg width="24" height="24" viewBox="0 0 24 24" fill="none" xmlns="http://www.w3.org/2000/svg">
    <path d="M15.7712 11.8955C17.854 13.9782 17.854 17.3551 15.7712 19.438C13.6884 21.5207 10.3116 21.5207 8.22873 19.438C6.14593 17.3551 6.14593 13.9782 8.22873 11.8955C10.3116 9.81267 13.6884 9.81267 15.7712 11.8955Z" stroke="#8293A3" stroke-width="2" stroke-linecap="round" stroke-linejoin="round"/>
    <path d="M16.0267 12.176L19.3671 6.32978C19.7058 5.73689 19.2773 5 18.5956 5H15.5636C15.2444 5 14.9502 5.17067 14.792 5.448L12 10.3333" stroke="#8293A3" stroke-width="2" stroke-linecap="round" stroke-linejoin="round"/>
    <path d="M7.97334 12.176L4.63289 6.32978C4.29422 5.73689 4.72178 5 5.40445 5H8.43645C8.75556 5 9.04978 5.17067 9.208 5.448L12 10.3333" stroke="#8293A3" stroke-width="2" stroke-linecap="round" stroke-linejoin="round"/>
</svg>
