<svg width="24" height="24" viewBox="0 0 24 24" fill="none" xmlns="http://www.w3.org/2000/svg">
    <path d="M9.25101 16.8676C9.94817 17.5647 9.94817 18.6951 9.25101 19.3922C8.55385 20.0894 7.42353 20.0894 6.72636 19.3922C6.0292 18.6951 6.0292 17.5647 6.72636 16.8676C7.42353 16.1704 8.55385 16.1704 9.25101 16.8676Z" stroke="#535E6E" stroke-width="2" stroke-linecap="round" stroke-linejoin="round"/>
    <path d="M17.2736 16.8676C17.9708 17.5647 17.9708 18.6951 17.2736 19.3922C16.5765 20.0894 15.4461 20.0894 14.749 19.3922C14.0518 18.6951 14.0518 17.5647 14.749 16.8676C15.4461 16.1704 16.5765 16.1704 17.2736 16.8676Z" stroke="#535E6E" stroke-width="2" stroke-linecap="round" stroke-linejoin="round"/>
    <path d="M6.77225 9.23845C7.46941 9.93561 7.46941 11.066 6.77225 11.7631C6.07509 12.4603 4.94477 12.4603 4.2476 11.7631C3.55044 11.066 3.55044 9.93561 4.2476 9.23845C4.94477 8.54129 6.07509 8.54129 6.77225 9.23845Z" stroke="#535E6E" stroke-width="2" stroke-linecap="round" stroke-linejoin="round"/>
    <path d="M13.2623 4.52287C13.9595 5.22003 13.9595 6.35036 13.2623 7.04752C12.5652 7.74468 11.4348 7.74468 10.7377 7.04752C10.0405 6.35036 10.0405 5.22003 10.7377 4.52287C11.4348 3.82571 12.5652 3.82571 13.2623 4.52287Z" stroke="#535E6E" stroke-width="2" stroke-linecap="round" stroke-linejoin="round"/>
    <path d="M19.7524 9.23845C20.4496 9.93561 20.4496 11.066 19.7524 11.7631C19.0553 12.4603 17.9249 12.4603 17.2278 11.7631C16.5306 11.066 16.5306 9.93561 17.2278 9.23845C17.9249 8.54129 19.0553 8.54129 19.7524 9.23845Z" stroke="#535E6E" stroke-width="2" stroke-linecap="round" stroke-linejoin="round"/>
    <path d="M13.2623 11.0914C13.9595 11.7886 13.9595 12.9189 13.2623 13.6161C12.5652 14.3133 11.4348 14.3133 10.7377 13.6161C10.0405 12.9189 10.0405 11.7886 10.7377 11.0914C11.4348 10.3943 12.5652 10.3943 13.2623 11.0914Z" stroke="#535E6E" stroke-width="2" stroke-linecap="round" stroke-linejoin="round"/>
    <path d="M13.0176 13.8141L14.9902 16.6704" stroke="#535E6E" stroke-width="2" stroke-linecap="round" stroke-linejoin="round"/>
    <path d="M10.9825 13.8141L9.00983 16.6615" stroke="#535E6E" stroke-width="2" stroke-linecap="round" stroke-linejoin="round"/>
    <path d="M10.2952 11.8683L7.2157 10.9846" stroke="#535E6E" stroke-width="2" stroke-linecap="round" stroke-linejoin="round"/>
    <path d="M12 10.565V7.57483" stroke="#535E6E" stroke-width="2" stroke-linecap="round" stroke-linejoin="round"/>
    <path d="M13.7048 11.8683L16.7843 10.9846" stroke="#535E6E" stroke-width="2" stroke-linecap="round" stroke-linejoin="round"/>
</svg>
