<svg width="32" height="32" viewBox="0 0 32 32" fill="none" xmlns="http://www.w3.org/2000/svg">
<rect x="1" y="1" width="30" height="30" rx="15" stroke="#B8C7D4" stroke-width="2"/>
<path d="M19.3335 9.99998C19.5086 9.82488 19.7165 9.68599 19.9452 9.59123C20.174 9.49647 20.4192 9.44769 20.6668 9.44769C20.9145 9.44769 21.1597 9.49647 21.3884 9.59123C21.6172 9.68599 21.8251 9.82488 22.0002 9.99998C22.1753 10.1751 22.3142 10.3829 22.4089 10.6117C22.5037 10.8405 22.5524 11.0857 22.5524 11.3333C22.5524 11.5809 22.5037 11.8261 22.4089 12.0549C22.3142 12.2837 22.1753 12.4915 22.0002 12.6666L13.0002 21.6666L9.3335 22.6666L10.3335 19L19.3335 9.99998Z" stroke="#B8C7D4" stroke-width="2" stroke-linecap="round" stroke-linejoin="round"/>
</svg>
