<svg width="27" height="28" viewBox="0 0 27 28" fill="none" xmlns="http://www.w3.org/2000/svg">
<path fill-rule="evenodd" clip-rule="evenodd" d="M19.1512 18.0842C19.1519 18.373 19.2417 18.6548 19.4086 18.8917L20.6315 20.6342C21.0097 21.0493 21.1061 21.646 20.8773 22.1573C20.6486 22.6685 20.1377 22.9987 19.5731 23H4.42689C3.86233 22.9987 3.35137 22.6685 3.12265 22.1573C2.89393 21.646 2.99025 21.0493 3.36852 20.6342L4.59137 18.8917C4.75829 18.6548 4.84812 18.373 4.84881 18.0842V13.0833C4.84881 9.17132 8.05051 6 12 6C15.9495 6 19.1512 9.17132 19.1512 13.0833V18.0842ZM15 24C14.5468 25.4915 13.3479 26.4906 12 26.5C10.6521 26.4906 9.45325 25.4915 9 24H15Z" fill="#6C6C6F"/>
<rect x="14" y="1" width="12" height="12" rx="6" fill="#02BAE8" stroke="white" stroke-width="2"/>
</svg>
